<?xml version="1.0" encoding="utf-8"?>
<svg viewBox="147.961 97.344 217.35 52.016" width="217.35px" height="52.016px" xmlns="http://www.w3.org/2000/svg">
  <g fill="#3d3935" fill-rule="none" stroke="none" stroke-width="1" stroke-linecap="butt" stroke-linejoin="miter" stroke-miterlimit="10" stroke-dasharray="" stroke-dashoffset="0" font-family="none" font-weight="none" font-size="none" text-anchor="none" style="mix-blend-mode: normal" transform="matrix(1, 0, 0, 1, -24.871113, -123.080803)">
    <g data-paper-data="{&quot;isGlobalGroup&quot;:true,&quot;bounds&quot;:{&quot;x&quot;:64.99999999999997,&quot;y&quot;:193.80477215631765,&quot;width&quot;:420,&quot;height&quot;:82.39045568736469}}" style="" transform="matrix(0.424396, 0, 0, 0.516685, 149.87709, 124.336388)">
      <g data-paper-data="{&quot;isSecondaryText&quot;:true}" fill-rule="nonzero" transform="matrix(1, 0, 0, 1, 21.493095, 65.900452)"/>
      <g data-paper-data="{&quot;isPrimaryText&quot;:true}" fill-rule="nonzero"/>
      <g data-paper-data="{&quot;isIcon&quot;:&quot;true&quot;,&quot;iconType&quot;:&quot;icon&quot;,&quot;rawIconId&quot;:&quot;40023&quot;,&quot;selectedEffects&quot;:{&quot;container&quot;:&quot;&quot;,&quot;transformation&quot;:&quot;&quot;,&quot;pattern&quot;:&quot;&quot;},&quot;combineTerms&quot;:&quot;code&quot;,&quot;isDetailed&quot;:false,&quot;fillRule&quot;:&quot;evenodd&quot;,&quot;bounds&quot;:{&quot;x&quot;:64.99999999999997,&quot;y&quot;:195.31526384391935,&quot;width&quot;:155.5554400787423,&quot;height&quot;:79.36947231216129},&quot;iconStyle&quot;:&quot;standalone&quot;,&quot;suitableAsStandaloneIcon&quot;:true}" fill-rule="evenodd">
        <path d="M183.29904,273.57857c0.87975,0.74321 1.95481,1.10617 3.02469,1.10617c1.33605,0 2.66172,-0.56691 3.58988,-1.6679l29.53479,-34.98961c1.47605,-1.74741 1.47605,-4.30543 0,-6.05456l-29.53306,-34.99133c-1.67308,-1.98074 -4.63383,-2.23136 -6.61456,-0.55827c-1.98074,1.67308 -2.23136,4.63383 -0.56,6.61456l26.97677,31.96319l-26.9785,31.96319c-1.67136,1.98074 -1.42074,4.94321 0.56,6.61456zM95.64183,273.01857c0.92814,1.09926 2.25383,1.66617 3.58814,1.66617c1.06814,0 2.14321,-0.36469 3.02469,-1.10617c1.98074,-1.67308 2.22963,-4.63383 0.55827,-6.61456l-26.9785,-31.96146l26.98195,-31.96492c1.67136,-1.98074 1.42074,-4.94321 -0.56,-6.61456c-1.98074,-1.67136 -4.94321,-1.42074 -6.61456,0.56l-29.53479,34.99133c-1.47605,1.74741 -1.47605,4.30543 0,6.05456zM118.38403,273.96918c0.77432,0.48395 1.63506,0.71556 2.48543,0.71556c1.5642,0 3.09383,-0.78123 3.98395,-2.2037l43.80441,-69.98094c1.3758,-2.19679 0.70864,-5.09185 -1.48814,-6.46765c-2.19679,-1.37408 -5.09358,-0.70864 -6.46938,1.48814l-43.80441,69.98094c-1.3758,2.19679 -0.70864,5.09185 1.48814,6.46765z" data-paper-data="{&quot;isPathIcon&quot;:true}" style="fill: rgb(255, 255, 255);"/>
      </g>
    </g>
    <g transform="matrix(1, 0, 0, 1, 28.754316, 18.070116)">
      <g>
        <g>
          <path d="M 237.117 238.946 Q 233.677 238.903 230.839 237.721 Q 228.001 236.538 225.959 234.474 Q 223.916 232.41 222.82 229.701 Q 221.723 226.992 221.723 223.896 Q 221.723 220.8 222.82 218.091 Q 223.916 215.382 225.959 213.318 Q 228.001 211.254 230.839 210.072 Q 233.677 208.889 237.117 208.846 L 240.987 208.846 L 240.987 212.501 L 237.246 212.501 Q 234.795 212.501 232.731 213.383 Q 230.667 214.264 229.141 215.791 Q 227.614 217.317 226.754 219.381 Q 225.894 221.445 225.894 223.896 Q 225.894 226.304 226.754 228.39 Q 227.614 230.475 229.141 232.002 Q 230.667 233.528 232.731 234.388 Q 234.795 235.248 237.246 235.291 L 240.987 235.291 L 240.987 238.946 Z" style="fill: rgb(255, 255, 255); white-space: pre;"/>
          <path d="M 255.986 239.462 Q 252.632 239.462 250.052 237.936 Q 247.472 236.409 245.967 233.808 Q 244.462 231.206 244.462 227.981 Q 244.462 224.756 245.967 222.155 Q 247.472 219.553 250.052 218.027 Q 252.632 216.5 255.986 216.5 Q 259.34 216.5 261.942 218.027 Q 264.543 219.553 266.027 222.133 Q 267.51 224.713 267.51 227.981 Q 267.51 231.206 266.027 233.808 Q 264.543 236.409 261.942 237.936 Q 259.34 239.462 255.986 239.462 Z M 255.986 236.065 Q 258.265 236.065 259.942 234.99 Q 261.619 233.915 262.565 232.088 Q 263.511 230.26 263.511 227.981 Q 263.511 225.702 262.565 223.875 Q 261.619 222.047 259.942 220.972 Q 258.265 219.897 255.986 219.897 Q 253.75 219.897 252.052 220.972 Q 250.353 222.047 249.407 223.875 Q 248.461 225.702 248.461 227.981 Q 248.461 230.26 249.407 232.088 Q 250.353 233.915 252.052 234.99 Q 253.75 236.065 255.986 236.065 Z" style="fill: rgb(255, 255, 255); white-space: pre;"/>
          <path d="M 282.686 239.462 Q 280.192 239.462 278.128 238.667 Q 276.064 237.871 274.559 236.323 Q 273.054 234.775 272.216 232.604 Q 271.377 230.432 271.377 227.723 Q 271.377 224.283 272.775 221.768 Q 274.172 219.252 276.602 217.876 Q 279.031 216.5 282.041 216.5 Q 283.718 216.5 285.245 217.059 Q 286.771 217.618 287.975 218.607 Q 289.179 219.596 289.867 220.929 L 289.953 220.929 L 289.953 207.556 L 293.909 207.556 L 293.909 227.852 Q 293.909 231.507 292.426 234.109 Q 290.942 236.71 288.427 238.086 Q 285.911 239.462 282.686 239.462 Z M 282.686 236.065 Q 284.707 236.065 286.341 235.076 Q 287.975 234.087 288.943 232.281 Q 289.91 230.475 289.91 228.024 Q 289.91 225.53 288.943 223.703 Q 287.975 221.875 286.341 220.886 Q 284.707 219.897 282.643 219.897 Q 280.622 219.897 278.967 220.929 Q 277.311 221.961 276.344 223.767 Q 275.376 225.573 275.376 227.981 Q 275.376 230.475 276.365 232.281 Q 277.354 234.087 279.01 235.076 Q 280.665 236.065 282.686 236.065 Z" style="fill: rgb(255, 255, 255); white-space: pre;"/>
          <path d="M 300.059 238.946 L 300.059 217.016 L 304.058 217.016 L 304.058 238.946 Z M 302.08 213.533 Q 301.005 213.533 300.209 212.738 Q 299.414 211.942 299.414 210.867 Q 299.414 209.792 300.209 208.997 Q 301.005 208.201 302.08 208.201 Q 303.155 208.201 303.95 208.997 Q 304.746 209.792 304.746 210.867 Q 304.746 211.942 303.95 212.738 Q 303.155 213.533 302.08 213.533 Z" style="fill: rgb(255, 255, 255); white-space: pre;"/>
          <path d="M 310.293 238.946 L 310.293 226.261 Q 310.293 223.337 311.605 221.144 Q 312.916 218.951 315.238 217.726 Q 317.56 216.5 320.527 216.5 Q 323.537 216.5 325.838 217.726 Q 328.138 218.951 329.45 221.144 Q 330.761 223.337 330.761 226.261 L 330.761 238.946 L 326.805 238.946 L 326.805 226.304 Q 326.805 224.326 325.924 222.886 Q 325.042 221.445 323.602 220.671 Q 322.161 219.897 320.527 219.897 Q 318.893 219.897 317.453 220.671 Q 316.012 221.445 315.131 222.886 Q 314.249 224.326 314.249 226.304 L 314.249 238.946 Z" style="fill: rgb(255, 255, 255); white-space: pre;"/>
          <path d="M 340.347 247.675 L 340.347 244.278 L 351.097 244.278 Q 352.688 244.278 353.57 243.332 Q 354.451 242.386 354.451 240.838 L 354.451 234.818 L 354.365 234.818 Q 353.548 236.065 352.387 237.054 Q 351.226 238.043 349.721 238.624 Q 348.216 239.204 346.324 239.204 Q 343.228 239.204 340.863 237.764 Q 338.498 236.323 337.165 233.765 Q 335.832 231.206 335.832 227.895 Q 335.832 224.67 337.165 222.09 Q 338.498 219.51 341.014 218.005 Q 343.529 216.5 347.098 216.5 Q 350.538 216.5 353.075 217.962 Q 355.612 219.424 357.01 222.026 Q 358.407 224.627 358.407 228.11 L 358.407 241.096 Q 358.407 244.106 356.644 245.891 Q 354.881 247.675 351.828 247.675 Z M 347.055 235.807 Q 349.248 235.807 350.904 234.775 Q 352.559 233.743 353.484 231.959 Q 354.408 230.174 354.408 227.938 Q 354.408 225.659 353.505 223.853 Q 352.602 222.047 350.968 220.994 Q 349.334 219.94 347.055 219.94 Q 344.819 219.94 343.207 220.994 Q 341.594 222.047 340.713 223.875 Q 339.831 225.702 339.831 227.981 Q 339.831 230.131 340.713 231.916 Q 341.594 233.7 343.207 234.754 Q 344.819 235.807 347.055 235.807 Z" style="fill: rgb(255, 255, 255); white-space: pre;"/>
        </g>
      </g>
      <g>
        <path d="M 236.87 248.469 Q 236.238 248.469 235.742 248.197 Q 235.246 247.925 234.958 247.465 Q 234.67 247.005 234.67 246.429 Q 234.67 245.853 234.958 245.393 Q 235.246 244.933 235.742 244.661 Q 236.238 244.389 236.87 244.389 L 237.35 244.389 L 237.35 245.021 L 236.846 245.021 Q 236.438 245.021 236.114 245.209 Q 235.79 245.397 235.602 245.717 Q 235.414 246.037 235.414 246.429 Q 235.414 246.821 235.602 247.141 Q 235.79 247.461 236.114 247.649 Q 236.438 247.837 236.846 247.837 L 237.35 247.837 L 237.35 248.469 Z" style="fill: rgb(255, 255, 255); white-space: pre;"/>
        <path d="M 260.103 248.565 Q 259.479 248.565 258.999 248.281 Q 258.519 247.997 258.239 247.513 Q 257.959 247.029 257.959 246.429 Q 257.959 245.829 258.239 245.345 Q 258.519 244.861 258.999 244.577 Q 259.479 244.293 260.103 244.293 Q 260.727 244.293 261.211 244.577 Q 261.695 244.861 261.971 245.341 Q 262.247 245.821 262.247 246.429 Q 262.247 247.029 261.971 247.513 Q 261.695 247.997 261.211 248.281 Q 260.727 248.565 260.103 248.565 Z M 260.103 247.933 Q 260.527 247.933 260.839 247.733 Q 261.151 247.533 261.327 247.193 Q 261.503 246.853 261.503 246.429 Q 261.503 246.005 261.327 245.665 Q 261.151 245.325 260.839 245.125 Q 260.527 244.925 260.103 244.925 Q 259.687 244.925 259.371 245.125 Q 259.055 245.325 258.879 245.665 Q 258.703 246.005 258.703 246.429 Q 258.703 246.853 258.879 247.193 Q 259.055 247.533 259.371 247.733 Q 259.687 247.933 260.103 247.933 Z" style="fill: rgb(255, 255, 255); white-space: pre;"/>
        <path d="M 283.168 248.469 L 283.168 245.549 Q 283.168 245.005 283.476 244.697 Q 283.784 244.389 284.328 244.389 L 285.168 244.389 L 285.168 245.021 L 284.464 245.021 Q 284.2 245.021 284.052 245.173 Q 283.904 245.325 283.904 245.597 L 283.904 248.469 Z" style="fill: rgb(255, 255, 255); white-space: pre;"/>
        <path d="M 307.905 244.293 Q 308.369 244.293 308.753 244.441 Q 309.137 244.589 309.417 244.877 Q 309.697 245.165 309.853 245.569 Q 310.009 245.973 310.009 246.477 Q 310.009 247.109 309.749 247.581 Q 309.489 248.053 309.041 248.309 Q 308.593 248.565 308.025 248.565 Q 307.713 248.565 307.429 248.461 Q 307.145 248.357 306.925 248.169 Q 306.705 247.981 306.569 247.741 L 306.553 247.741 L 306.553 250.229 L 305.817 250.229 L 305.817 246.453 Q 305.817 245.765 306.093 245.285 Q 306.369 244.805 306.841 244.549 Q 307.313 244.293 307.905 244.293 Z M 307.905 244.925 Q 307.537 244.925 307.229 245.109 Q 306.921 245.293 306.741 245.629 Q 306.561 245.965 306.561 246.421 Q 306.561 246.885 306.741 247.225 Q 306.921 247.565 307.229 247.749 Q 307.537 247.933 307.913 247.933 Q 308.297 247.933 308.601 247.741 Q 308.905 247.549 309.085 247.213 Q 309.265 246.877 309.265 246.429 Q 309.265 245.965 309.081 245.629 Q 308.897 245.293 308.589 245.109 Q 308.281 244.925 307.905 244.925 Z" style="fill: rgb(255, 255, 255); white-space: pre;"/>
        <path d="M 330.895 248.469 L 330.895 247.837 L 332.847 247.837 Q 333.039 247.837 333.179 247.753 Q 333.319 247.669 333.391 247.533 Q 333.463 247.397 333.463 247.245 Q 333.463 247.101 333.399 246.977 Q 333.335 246.853 333.203 246.777 Q 333.071 246.701 332.887 246.701 L 332.063 246.701 Q 331.671 246.701 331.379 246.569 Q 331.087 246.437 330.923 246.181 Q 330.759 245.925 330.759 245.557 Q 330.759 245.245 330.911 244.981 Q 331.063 244.717 331.335 244.553 Q 331.607 244.389 331.959 244.389 L 333.839 244.389 L 333.839 245.021 L 332.031 245.021 Q 331.783 245.021 331.639 245.173 Q 331.495 245.325 331.495 245.533 Q 331.495 245.733 331.643 245.881 Q 331.791 246.029 332.063 246.029 L 332.847 246.029 Q 333.287 246.029 333.587 246.169 Q 333.887 246.309 334.043 246.573 Q 334.199 246.837 334.199 247.221 Q 334.199 247.549 334.039 247.833 Q 333.879 248.117 333.595 248.293 Q 333.311 248.469 332.935 248.469 Z" style="fill: rgb(255, 255, 255); white-space: pre;"/>
      </g>
    </g>
  </g>
</svg>