<?xml version="1.0" standalone="no"?>
<!DOCTYPE svg PUBLIC "-//W3C//DTD SVG 20010904//EN"
 "http://www.w3.org/TR/2001/REC-SVG-20010904/DTD/svg10.dtd">
<svg version="1.0" xmlns="http://www.w3.org/2000/svg"
 width="1056.000000pt" height="1056.000000pt" viewBox="0 0 1056.000000 1056.000000"
 preserveAspectRatio="xMidYMid meet">
<metadata>
Created by potrace 1.14, written by Peter Selinger 2001-2017
</metadata>
<g transform="translate(0.000000,1056.000000) scale(0.100000,-0.100000)"
fill="#000000" stroke="none">
<path d="M2238 8548 c-21 -7 -38 -15 -38 -20 0 -4 -6 -8 -12 -8 -30 -1 -136
-125 -203 -237 -11 -19 -25 -38 -41 -56 -5 -7 -19 -27 -29 -44 -11 -18 -23
-33 -27 -33 -4 0 -8 -7 -8 -15 0 -8 -4 -15 -10 -15 -5 0 -10 -6 -10 -12 -1 -7
-14 -29 -30 -48 -17 -19 -30 -40 -30 -47 0 -7 -3 -13 -7 -13 -5 0 -24 -25 -43
-55 -19 -30 -38 -55 -42 -55 -5 0 -8 -6 -8 -14 0 -8 -3 -16 -7 -18 -8 -3 -21
-22 -114 -158 -21 -30 -74 -107 -118 -170 -44 -63 -115 -167 -158 -230 -43
-63 -80 -117 -83 -120 -11 -10 -80 -110 -80 -116 0 -3 -6 -12 -13 -19 -15 -18
-29 -36 -42 -57 -23 -37 -130 -193 -136 -198 -3 -3 -21 -27 -39 -55 -19 -27
-37 -51 -42 -53 -4 -2 -8 -8 -8 -13 0 -5 -23 -40 -50 -79 -28 -39 -50 -75 -50
-80 0 -6 -4 -10 -9 -10 -5 0 -24 -25 -42 -55 -18 -30 -37 -55 -41 -55 -4 0 -8
-4 -8 -10 0 -9 -65 -106 -80 -120 -3 -3 -38 -54 -79 -115 -41 -60 -82 -119
-93 -131 -10 -11 -15 -24 -11 -27 3 -4 2 -7 -3 -7 -5 0 -30 -30 -54 -67 -24
-38 -59 -88 -77 -113 -18 -25 -37 -50 -41 -55 -4 -6 -25 -37 -47 -70 -22 -33
-42 -62 -45 -65 -3 -3 -25 -35 -49 -72 -62 -96 -80 -163 -77 -273 4 -101 23
-160 77 -241 71 -107 134 -199 144 -210 5 -7 39 -55 75 -109 36 -53 75 -108
87 -123 13 -15 23 -32 23 -39 0 -6 4 -13 8 -15 4 -1 50 -65 102 -142 52 -76
100 -143 105 -150 6 -6 21 -28 34 -49 13 -21 30 -44 38 -52 8 -8 12 -15 8 -15
-3 0 6 -12 20 -27 14 -15 25 -33 25 -40 0 -6 3 -13 8 -15 6 -3 146 -201 276
-393 23 -33 45 -64 49 -70 5 -5 39 -55 77 -110 38 -55 72 -105 77 -110 4 -6
41 -60 82 -120 41 -61 77 -112 80 -115 3 -3 11 -12 16 -21 14 -24 115 -170
134 -195 9 -12 22 -30 29 -40 53 -80 172 -251 180 -260 5 -5 15 -21 22 -35 7
-13 16 -26 20 -29 3 -3 40 -54 81 -115 41 -60 78 -114 82 -120 25 -32 97 -135
97 -140 0 -22 92 -108 146 -136 62 -32 169 -34 229 -4 95 46 186 175 199 280
2 22 5 42 6 45 4 11 2 67 -4 100 -16 93 -28 124 -92 221 -27 41 -51 76 -54 79
-3 3 -19 25 -35 50 -17 25 -34 50 -38 55 -5 6 -43 60 -84 120 -42 61 -99 143
-127 183 -28 41 -55 81 -61 90 -5 10 -13 19 -16 22 -5 4 -34 46 -74 108 -5 9
-18 25 -27 36 -10 11 -18 23 -18 27 0 5 -11 20 -25 35 -14 15 -23 29 -21 31 2
3 -3 12 -11 21 -14 16 -39 51 -186 263 -32 46 -136 197 -232 334 -97 138 -178
257 -182 265 -4 8 -12 20 -17 27 -28 32 -36 43 -36 48 0 5 -69 105 -80 115
-13 13 -50 70 -50 79 0 5 -4 11 -8 13 -8 3 -88 115 -134 187 -9 14 -21 31 -25
36 -5 6 -49 69 -98 140 -48 72 -91 132 -95 135 -3 3 -21 29 -39 58 l-33 52 46
68 c78 114 145 211 253 365 56 81 103 152 103 157 0 4 4 10 8 12 5 2 37 46 73
98 35 52 66 97 69 100 3 3 23 32 45 65 22 33 44 65 50 70 5 6 15 18 20 27 18
31 169 251 180 262 5 6 31 43 57 81 26 39 72 106 103 150 30 44 79 115 107
158 29 42 56 77 60 77 4 0 8 4 8 10 0 11 139 212 154 222 6 4 7 8 3 8 -4 0 7
20 25 44 18 24 39 52 46 62 7 11 57 83 112 162 55 79 100 147 100 152 0 5 4
10 8 12 5 2 44 55 87 118 44 63 91 132 107 154 63 87 94 231 74 331 -17 79
-56 171 -80 187 -6 4 -7 8 -3 8 16 0 -86 81 -121 96 -47 20 -146 26 -194 12z"/>
<path d="M6650 8530 c-45 -22 -76 -46 -102 -78 -42 -53 -36 -43 -223 -407 -76
-148 -175 -341 -219 -427 -45 -86 -110 -214 -146 -285 -35 -70 -71 -136 -79
-145 -8 -10 -11 -18 -6 -18 4 0 3 -6 -3 -12 -5 -7 -60 -112 -122 -233 -62
-121 -138 -269 -170 -330 -32 -60 -106 -204 -165 -320 -290 -568 -446 -868
-457 -882 -6 -7 -7 -13 -3 -13 5 0 1 -8 -7 -17 -9 -10 -19 -29 -23 -43 -4 -14
-11 -27 -14 -30 -3 -3 -34 -59 -67 -125 -33 -66 -106 -208 -161 -315 -55 -107
-142 -276 -193 -375 -91 -176 -175 -340 -360 -700 -51 -99 -116 -225 -143
-280 -27 -55 -54 -101 -58 -103 -5 -2 -9 -9 -9 -15 0 -16 -42 -100 -55 -109
-5 -4 -6 -8 -1 -8 5 0 4 -6 -1 -12 -10 -13 -145 -272 -231 -443 -25 -49 -50
-93 -56 -97 -6 -4 -7 -8 -3 -8 4 0 -8 -29 -28 -64 -64 -115 -84 -226 -60 -342
24 -115 86 -205 180 -260 38 -22 61 -28 118 -29 39 -2 78 1 86 5 9 4 33 16 55
26 85 41 112 85 363 584 43 85 80 157 83 160 3 3 45 84 94 180 49 96 121 238
161 315 97 188 272 527 307 595 15 30 28 60 28 66 0 7 4 14 8 16 5 2 30 46 57
98 26 52 90 178 143 280 52 102 135 264 185 360 49 96 132 258 185 360 52 102
134 262 182 355 48 94 128 249 178 345 49 96 134 261 187 365 54 105 122 236
151 293 28 56 57 109 64 117 7 8 10 15 7 15 -2 0 20 46 49 102 30 57 54 108
54 114 0 7 4 14 8 16 5 2 45 75 89 163 152 300 168 330 178 337 6 4 6 8 1 8
-5 0 -3 7 4 15 14 17 61 114 57 118 -1 1 7 16 19 32 11 17 54 95 94 175 41 80
90 177 110 217 20 40 42 78 48 85 5 7 11 16 11 20 1 4 10 27 20 51 36 85 45
188 23 277 -7 30 -14 60 -15 65 -6 25 -63 112 -90 138 -57 53 -110 77 -183 83
-62 4 -75 2 -134 -26z"/>
<path d="M8149 8545 c-125 -40 -231 -212 -232 -375 0 -79 36 -193 81 -256 16
-22 57 -82 94 -134 36 -52 135 -196 221 -320 86 -124 186 -270 224 -324 37
-54 74 -105 81 -112 6 -7 12 -17 12 -22 0 -5 9 -17 20 -27 11 -10 20 -24 20
-32 0 -7 5 -13 10 -13 6 0 10 -6 10 -14 0 -8 4 -16 8 -18 4 -1 21 -23 38 -48
89 -133 239 -345 246 -348 4 -2 8 -8 8 -12 0 -7 189 -285 227 -335 5 -5 33
-46 63 -90 30 -44 58 -81 62 -83 4 -2 8 -8 8 -13 0 -6 17 -33 38 -62 85 -116
202 -287 202 -296 0 -5 3 -11 8 -13 9 -4 210 -291 218 -311 3 -8 -2 -21 -10
-30 -8 -8 -12 -17 -9 -21 4 -3 2 -6 -3 -6 -5 0 -18 -16 -28 -35 -11 -19 -23
-35 -28 -35 -4 0 -8 -5 -8 -11 0 -6 -13 -28 -28 -48 -25 -32 -131 -183 -172
-246 -8 -12 -41 -60 -72 -105 -32 -45 -58 -85 -58 -90 0 -5 -4 -10 -8 -12 -10
-3 -91 -117 -107 -149 -5 -10 -13 -19 -17 -19 -5 0 -8 -5 -8 -10 0 -6 -5 -16
-10 -23 -6 -7 -33 -43 -60 -82 -27 -38 -54 -75 -60 -82 -5 -7 -10 -15 -10 -18
0 -3 -5 -11 -11 -18 -6 -7 -70 -100 -144 -207 -73 -107 -139 -202 -147 -211
-12 -14 -114 -161 -148 -214 -18 -28 -103 -151 -177 -255 -29 -41 -57 -82 -63
-90 -5 -8 -38 -55 -73 -105 -35 -49 -72 -105 -82 -123 -11 -17 -23 -32 -27
-32 -4 0 -8 -5 -8 -11 0 -6 -6 -16 -12 -24 -7 -7 -32 -42 -56 -77 -24 -35 -77
-112 -119 -172 -122 -176 -150 -265 -129 -406 10 -70 54 -174 80 -192 6 -4 7
-8 3 -8 -15 0 83 -79 120 -97 24 -11 62 -17 107 -18 115 0 191 47 274 171 53
79 305 443 317 457 8 9 15 20 15 23 0 3 14 23 30 44 17 21 30 42 30 48 0 6 4
12 8 14 5 2 35 41 67 88 140 203 168 245 297 430 74 107 149 215 167 240 17
25 48 70 68 100 21 30 54 78 75 106 21 28 38 56 38 62 0 5 4 12 8 14 4 1 28
32 52 68 25 36 47 67 50 70 3 3 34 48 69 100 35 52 71 105 80 116 9 12 22 30
29 40 7 11 67 98 134 194 67 96 152 220 190 275 38 55 106 153 151 218 45 65
87 126 92 135 6 9 13 19 17 22 9 7 48 98 56 130 12 47 7 195 -8 245 -11 39
-168 294 -200 325 -3 3 -24 32 -46 65 -23 33 -61 88 -85 123 -24 35 -48 71
-54 80 -5 9 -12 19 -16 22 -3 3 -31 43 -64 90 -32 47 -92 134 -134 193 -42 60
-81 116 -86 125 -22 36 -50 77 -56 82 -3 3 -33 46 -67 95 -33 50 -86 126 -117
170 -31 44 -73 105 -93 135 -20 30 -40 60 -45 65 -31 39 -207 298 -207 305 0
4 -4 10 -8 12 -5 2 -42 53 -83 113 -41 61 -77 112 -80 115 -3 3 -35 48 -70
100 -143 209 -204 295 -211 298 -4 2 -8 8 -8 13 0 9 -37 67 -51 79 -3 3 -45
64 -94 135 -49 72 -91 132 -95 135 -3 3 -21 30 -40 60 -19 30 -43 63 -54 73
-10 9 -15 17 -11 17 18 0 -68 70 -111 90 -57 28 -145 34 -205 15z"/>
</g>
</svg>
