<?xml version="1.0" encoding="utf-8"?>
<svg viewBox="152.592 102.172 66.017 41.009" width="66.017px" height="41.009px" xmlns="http://www.w3.org/2000/svg">
  <g data-paper-data="{&quot;isGlobalGroup&quot;:true,&quot;bounds&quot;:{&quot;x&quot;:64.99999999999997,&quot;y&quot;:193.80477215631765,&quot;width&quot;:420,&quot;height&quot;:82.39045568736469}}" style="" transform="matrix(0.424396, 0, 0, 0.516685, 125.005981, 1.255585)">
    <g data-paper-data="{&quot;isSecondaryText&quot;:true}" fill-rule="nonzero" transform="matrix(1, 0, 0, 1, 21.493095, 65.900452)"/>
    <g data-paper-data="{&quot;isPrimaryText&quot;:true}" fill-rule="nonzero"/>
    <g data-paper-data="{&quot;isIcon&quot;:&quot;true&quot;,&quot;iconType&quot;:&quot;icon&quot;,&quot;rawIconId&quot;:&quot;40023&quot;,&quot;selectedEffects&quot;:{&quot;container&quot;:&quot;&quot;,&quot;transformation&quot;:&quot;&quot;,&quot;pattern&quot;:&quot;&quot;},&quot;combineTerms&quot;:&quot;code&quot;,&quot;isDetailed&quot;:false,&quot;fillRule&quot;:&quot;evenodd&quot;,&quot;bounds&quot;:{&quot;x&quot;:64.99999999999997,&quot;y&quot;:195.31526384391935,&quot;width&quot;:155.5554400787423,&quot;height&quot;:79.36947231216129},&quot;iconStyle&quot;:&quot;standalone&quot;,&quot;suitableAsStandaloneIcon&quot;:true}" fill-rule="evenodd">
      <path d="M183.29904,273.57857c0.87975,0.74321 1.95481,1.10617 3.02469,1.10617c1.33605,0 2.66172,-0.56691 3.58988,-1.6679l29.53479,-34.98961c1.47605,-1.74741 1.47605,-4.30543 0,-6.05456l-29.53306,-34.99133c-1.67308,-1.98074 -4.63383,-2.23136 -6.61456,-0.55827c-1.98074,1.67308 -2.23136,4.63383 -0.56,6.61456l26.97677,31.96319l-26.9785,31.96319c-1.67136,1.98074 -1.42074,4.94321 0.56,6.61456zM95.64183,273.01857c0.92814,1.09926 2.25383,1.66617 3.58814,1.66617c1.06814,0 2.14321,-0.36469 3.02469,-1.10617c1.98074,-1.67308 2.22963,-4.63383 0.55827,-6.61456l-26.9785,-31.96146l26.98195,-31.96492c1.67136,-1.98074 1.42074,-4.94321 -0.56,-6.61456c-1.98074,-1.67136 -4.94321,-1.42074 -6.61456,0.56l-29.53479,34.99133c-1.47605,1.74741 -1.47605,4.30543 0,6.05456zM118.38403,273.96918c0.77432,0.48395 1.63506,0.71556 2.48543,0.71556c1.5642,0 3.09383,-0.78123 3.98395,-2.2037l43.80441,-69.98094c1.3758,-2.19679 0.70864,-5.09185 -1.48814,-6.46765c-2.19679,-1.37408 -5.09358,-0.70864 -6.46938,1.48814l-43.80441,69.98094c-1.3758,2.19679 -0.70864,5.09185 1.48814,6.46765z" data-paper-data="{&quot;isPathIcon&quot;:true}" style="fill: rgb(255, 255, 255);"/>
    </g>
  </g>
</svg>