<svg xmlns:mydata="http://www.w3.org/2000/svg" mydata:contrastcolor="ffffff" mydata:template="Default" mydata:presentation="2.5" mydata:layouttype="undefined" mydata:specialfontid="undefined" mydata:id1="635" mydata:id2="208" mydata:companyname="coding corps" mydata:companytagline="" version="1.1" xmlns="http://www.w3.org/2000/svg" xmlns:xlink="http://www.w3.org/1999/xlink" height="300px" viewBox="0 0 550 470" class="svg-primary-tile"><g fill="#3d3935" fill-rule="none" stroke="none" stroke-width="1" stroke-linecap="butt" stroke-linejoin="miter" stroke-miterlimit="10" stroke-dasharray="" stroke-dashoffset="0" font-family="none" font-weight="none" font-size="none" text-anchor="none" style="mix-blend-mode: normal"><g data-paper-data="{&quot;isGlobalGroup&quot;:true,&quot;bounds&quot;:{&quot;x&quot;:64.99999999999997,&quot;y&quot;:193.80477215631765,&quot;width&quot;:420,&quot;height&quot;:82.39045568736469}}"><g data-paper-data="{&quot;isSecondaryText&quot;:true}" fill-rule="nonzero"><path d="M261.23466,267.54142v4.30931c0,2.69112 1.67096,4.34449 4.73145,4.34449c2.79666,0 4.06307,-1.14329 4.66109,-3.14844c0.05277,-0.1583 0.01759,-0.22866 -0.14071,-0.28142l-0.33419,-0.12312c-0.1583,-0.05277 -0.22866,-0.01759 -0.29901,0.14071c-0.52767,1.74131 -1.53025,2.65594 -3.88718,2.65594c-2.55041,0 -3.92235,-1.37194 -3.92235,-3.57057v-4.34449c0,-2.21622 1.31918,-3.55298 3.92235,-3.55298c2.28657,0 3.32433,0.82668 3.852,2.568c0.05277,0.1583 0.12312,0.17589 0.29901,0.14071l0.3166,-0.10553c0.1583,-0.07036 0.21107,-0.12312 0.1583,-0.29901c-0.59803,-2.00515 -1.89962,-3.06049 -4.62592,-3.06049c-3.11326,0 -4.73145,1.65337 -4.73145,4.3269z" data-paper-data="{&quot;glyphName&quot;:&quot;C&quot;,&quot;glyphIndex&quot;:0,&quot;firstGlyphOfWord&quot;:true,&quot;word&quot;:1}"></path><path d="M295.88303,267.55901v4.29172c0,2.69112 1.65337,4.34449 4.74904,4.34449c3.06049,0 4.71386,-1.65337 4.71386,-4.34449v-4.29172c0,-2.69112 -1.65337,-4.34449 -4.71386,-4.34449c-3.09567,0 -4.74904,1.65337 -4.74904,4.34449zM304.53683,267.55901v4.29172c0,2.2514 -1.37194,3.58816 -3.90476,3.58816c-2.568,0 -3.93994,-1.33677 -3.93994,-3.58816v-4.29172c0,-2.2514 1.37194,-3.58816 3.93994,-3.58816c2.53282,0 3.90476,1.33677 3.90476,3.58816z" data-paper-data="{&quot;glyphName&quot;:&quot;O&quot;,&quot;glyphIndex&quot;:1,&quot;word&quot;:1}"></path><path d="M337.53905,263.46077h-5.04805c-0.17589,0 -0.22866,0.05277 -0.22866,0.22866v12.0309c0,0.17589 0.05277,0.22866 0.22866,0.22866h0.36937c0.1583,0 0.21107,-0.05277 0.21107,-0.22866v-5.25912h2.90219c1.47748,0 2.14586,0.51008 2.7263,1.67096l1.82926,3.62334c0.07036,0.1583 0.1583,0.19348 0.43973,0.19348h0.33419c0.17589,0 0.21107,-0.10553 0.12312,-0.22866l-1.96997,-3.90476c-0.38696,-0.72115 -0.77392,-1.16088 -1.4423,-1.4423c1.89962,-0.1583 3.09567,-1.37194 3.09567,-3.39468c0,-2.23381 -1.35436,-3.51781 -3.57057,-3.51781zM340.26535,266.97858c0,1.7589 -1.05534,2.7263 -2.81424,2.7263h-4.37967v-5.48778h4.37967c1.79408,0 2.81424,1.00257 2.81424,2.76148z" data-paper-data="{&quot;glyphName&quot;:&quot;R&quot;,&quot;glyphIndex&quot;:2,&quot;word&quot;:1}"></path><path d="M371.84314,263.46077h-4.73145c-0.17589,0 -0.22866,0.05277 -0.22866,0.22866v12.0309c0,0.17589 0.05277,0.22866 0.22866,0.22866h0.36937c0.1583,0 0.21107,-0.05277 0.21107,-0.22866v-4.62592h4.15101c2.39211,0 3.88718,-1.42471 3.88718,-3.79923c0,-2.4097 -1.51266,-3.83441 -3.88718,-3.83441zM371.77278,270.33808h-4.08066v-6.12098h4.08066c1.9172,0 3.11326,1.14329 3.11326,3.07808c0,1.9172 -1.19605,3.0429 -3.11326,3.0429z" data-paper-data="{&quot;glyphName&quot;:&quot;P&quot;,&quot;glyphIndex&quot;:3,&quot;word&quot;:1}"></path><path d="M399.7949,266.71474c0,2.7263 2.39211,3.09567 4.59074,3.3595c1.9172,0.22866 3.74646,0.49249 3.74646,2.568c0,1.86444 -1.30159,2.77907 -3.83441,2.77907c-1.96997,0 -3.21879,-0.82668 -3.97512,-2.60318c-0.08795,-0.17589 -0.14071,-0.19348 -0.29901,-0.14071l-0.33419,0.12312c-0.17589,0.07036 -0.19348,0.14071 -0.12312,0.3166c0.84427,2.09309 2.26898,3.07808 4.73145,3.07808c3.06049,0 4.6435,-1.30159 4.6435,-3.58816c0,-2.70871 -2.23381,-3.07808 -4.37967,-3.32433c-1.98756,-0.21107 -3.93994,-0.54526 -3.93994,-2.62077c0,-1.68855 1.31918,-2.67353 3.58816,-2.67353c1.96997,0 3.07808,0.73874 3.86959,2.30416c0.08795,0.1583 0.14071,0.1583 0.28142,0.10553l0.35178,-0.1583c0.14071,-0.05277 0.19348,-0.14071 0.10553,-0.29901c-0.91463,-1.86444 -2.2514,-2.7263 -4.60833,-2.7263c-2.77907,0 -4.41485,1.35436 -4.41485,3.50022z" data-paper-data="{&quot;glyphName&quot;:&quot;S&quot;,&quot;glyphIndex&quot;:4,&quot;lastGlyphOfWord&quot;:true,&quot;word&quot;:1}"></path></g><g data-paper-data="{&quot;isPrimaryText&quot;:true}" fill-rule="nonzero"><path d="M291.89135,235.45494c-1.99979,8.3823 -8.30598,15.5342 -17.53399,15.5342c-8.30444,0 -12.84135,-5.30707 -12.84135,-26.45363c0,-21.06947 4.30563,-26.45286 12.84135,-26.45286c8.76623,0 13.22682,5.07579 17.53399,15.45711h1.30595l1.07699,-12.07351c-4.84528,-3.92094 -11.99564,-4.69033 -19.91693,-4.69033c-16.45623,0 -26.68337,12.45743 -26.68337,27.76036c0,15.30293 10.22713,27.76113 26.68337,27.76113c8.22889,0 14.22671,-0.99989 19.91693,-4.76819l-1.07699,-12.07351h-1.30595z" data-paper-data="{&quot;glyphName&quot;:&quot;C&quot;,&quot;glyphIndex&quot;:0,&quot;firstGlyphOfWord&quot;:true,&quot;word&quot;:1}"></path><path d="M317.00471,214.80871c-11.68881,0 -18.30261,8.30598 -18.30261,18.45602c0,10.07372 6.61379,18.45602 18.30261,18.45602c11.76437,0 18.30184,-8.3823 18.30184,-18.45602c0,-10.15004 -6.53747,-18.45602 -18.30184,-18.45602zM317.00471,250.41327c-5.53758,0 -6.99849,-3.22942 -6.99849,-17.14853c0,-13.91834 1.46091,-17.14853 6.99849,-17.14853c5.53758,0 6.92062,3.22865 6.92062,17.14853c0,13.91911 -1.38305,17.14853 -6.92062,17.14853z" data-paper-data="{&quot;glyphName&quot;:&quot;o&quot;,&quot;glyphIndex&quot;:1,&quot;word&quot;:1}"></path><path d="M367.89453,193.80477v23.45164c-2.46543,-1.45474 -5.68945,-2.30662 -9.22878,-2.30662c-10.76678,0 -18.92089,5.54066 -18.92089,17.91946c0,12.14752 7.69078,18.9949 16.38146,18.9949c3.61411,0 9.30279,-1.69527 11.76822,-6.22679v6.07877h9.53407v-57.91136zM367.89453,239.7999c0,5.38339 -3.23404,9.22878 -8.46017,9.22878c-6.22602,0 -8.76546,-4.61401 -8.76546,-16.9928c0,-11.69344 2.45541,-15.9189 8.07085,-15.9189c4.38273,0 9.15477,3.15078 9.15477,12.84212z" data-paper-data="{&quot;glyphName&quot;:&quot;d&quot;,&quot;glyphIndex&quot;:2,&quot;word&quot;:1}"></path><path d="M391.28115,208.65825c2.92182,0 5.30707,-2.30739 5.30707,-5.22998c0,-2.92182 -2.38448,-5.22921 -5.30707,-5.22921c-2.92182,0 -5.22921,2.30585 -5.22921,5.22921c0.00077,2.92182 2.30739,5.22998 5.22921,5.22998zM396.81873,251.71613v-36.90742h-9.53561v36.90742z" data-paper-data="{&quot;glyphName&quot;:&quot;i&quot;,&quot;glyphIndex&quot;:3,&quot;word&quot;:1}"></path><path d="M427.75796,214.80871c-4.84528,0 -10.91943,3.53779 -12.68871,8.22889v-8.22889l-9.61193,-0.00154v36.90819h9.61193v-25.06442c0,-3.07523 3.53702,-6.30619 6.53747,-6.30619c3.84385,0 6.2291,2.69208 6.2291,6.38329v24.98733h9.6127v-25.21706c-0.00154,-9.30433 -3.69352,-11.68959 -9.69057,-11.68959z" data-paper-data="{&quot;glyphName&quot;:&quot;n&quot;,&quot;glyphIndex&quot;:4,&quot;word&quot;:1}"></path><path d="M483.88654,215.41613c-1.07668,-1.23049 -2.84551,-1.69192 -4.30671,-1.3843c-1.76883,0.30762 -4.99886,1.30739 -7.2282,4.5365c-2.46098,-2.07645 -5.99771,-3.38292 -11.07348,-3.38292c-9.38155,0 -14.76494,5.30649 -14.76494,11.53491c0,4.07507 2.46098,8.07416 6.30533,9.76608c-7.45891,2.84551 -7.38201,9.84299 -7.38201,9.84299c0,3.46075 1.92264,5.4603 3.99909,6.45914c-4.53743,1.99954 -9.22774,8.15106 -6.53697,13.76517c2.99932,6.30533 16.99428,6.99748 27.76013,0.99977c8.07416,-4.5365 8.45869,-10.99657 8.45869,-10.99657c1.46121,-11.61182 -7.45892,-12.22706 -12.7654,-12.22706h-10.764c-8.15106,0 -3.45982,-6.30626 -1.3843,-7.2282c1.84573,0.76906 4.07507,1.15358 7.07439,1.15358c9.45846,0 14.84185,-5.30649 14.84185,-11.53491c0,-2.7686 -0.92287,-5.30649 -2.7686,-7.2282c1.30739,-1.61502 3.15313,-1.99954 3.07622,-1.3843c-0.15381,1.07668 0.15381,2.15336 0.92287,3.0753c1.61502,1.76883 4.38362,1.99954 6.15245,0.38453c1.84481,-1.61502 1.99862,-4.38362 0.3836,-6.15152zM457.66452,254.63427h10.45823c5.61411,0 6.30533,4.07507 6.30533,4.07507c0,0 0.61524,4.61341 -4.4596,7.68963c-7.2282,4.22888 -16.53285,2.38407 -20.76265,-2.6917c0,0 -5.4603,-6.15245 1.61502,-10.15061c2.99839,1.23142 5.99771,1.0776 6.84367,1.0776zM461.27908,236.94783c-3.38385,0 -5.76792,-1.61502 -5.76792,-10.22752c0,-8.6125 1.92264,-10.22752 5.76792,-10.22752c3.30601,0 5.8439,1.61502 5.8439,10.22752c0,8.6125 -2.30717,10.22752 -5.8439,10.22752z" data-paper-data="{&quot;glyphName&quot;:&quot;g&quot;,&quot;glyphIndex&quot;:5,&quot;lastGlyphOfWord&quot;:true,&quot;word&quot;:1}"></path></g><g data-paper-data="{&quot;isIcon&quot;:&quot;true&quot;,&quot;iconType&quot;:&quot;icon&quot;,&quot;rawIconId&quot;:&quot;40023&quot;,&quot;selectedEffects&quot;:{&quot;container&quot;:&quot;&quot;,&quot;transformation&quot;:&quot;&quot;,&quot;pattern&quot;:&quot;&quot;},&quot;combineTerms&quot;:&quot;code&quot;,&quot;isDetailed&quot;:false,&quot;fillRule&quot;:&quot;evenodd&quot;,&quot;bounds&quot;:{&quot;x&quot;:64.99999999999997,&quot;y&quot;:195.31526384391935,&quot;width&quot;:155.5554400787423,&quot;height&quot;:79.36947231216129},&quot;iconStyle&quot;:&quot;standalone&quot;,&quot;suitableAsStandaloneIcon&quot;:true}" fill-rule="evenodd"><path d="M183.29904,273.57857c0.87975,0.74321 1.95481,1.10617 3.02469,1.10617c1.33605,0 2.66172,-0.56691 3.58988,-1.6679l29.53479,-34.98961c1.47605,-1.74741 1.47605,-4.30543 0,-6.05456l-29.53306,-34.99133c-1.67308,-1.98074 -4.63383,-2.23136 -6.61456,-0.55827c-1.98074,1.67308 -2.23136,4.63383 -0.56,6.61456l26.97677,31.96319l-26.9785,31.96319c-1.67136,1.98074 -1.42074,4.94321 0.56,6.61456zM95.64183,273.01857c0.92814,1.09926 2.25383,1.66617 3.58814,1.66617c1.06814,0 2.14321,-0.36469 3.02469,-1.10617c1.98074,-1.67308 2.22963,-4.63383 0.55827,-6.61456l-26.9785,-31.96146l26.98195,-31.96492c1.67136,-1.98074 1.42074,-4.94321 -0.56,-6.61456c-1.98074,-1.67136 -4.94321,-1.42074 -6.61456,0.56l-29.53479,34.99133c-1.47605,1.74741 -1.47605,4.30543 0,6.05456zM118.38403,273.96918c0.77432,0.48395 1.63506,0.71556 2.48543,0.71556c1.5642,0 3.09383,-0.78123 3.98395,-2.2037l43.80441,-69.98094c1.3758,-2.19679 0.70864,-5.09185 -1.48814,-6.46765c-2.19679,-1.37408 -5.09358,-0.70864 -6.46938,1.48814l-43.80441,69.98094c-1.3758,2.19679 -0.70864,5.09185 1.48814,6.46765z" data-paper-data="{&quot;isPathIcon&quot;:true}"></path></g></g></g></svg>